{
  "asset": {
    "generator": "glTF-Transform v4.5.0",
    "version": "2.0",
    "extras": {
      "author": "mrwrightphoto (https://sketchfab.com/mrwrightphoto)",
      "license": "CC-BY-4.0 (http://creativecommons.org/licenses/by/4.0/)",
      "source": "https://sketchfab.com/3d-models/april-2024-industrial-park-progress-8d9a4829981b437aa98f77c6f38fe7f7",
      "title": "April 2024 Industrial Park Progress"
    }
  },
  "accessors": [
    {
      "type": "SCALAR",
      "componentType": 5123,
      "count": 101076,
      "bufferView": 0,
      "byteOffset": 0
    },
    {
      "type": "SCALAR",
      "componentType": 5123,
      "count": 100758,
      "bufferView": 0,
      "byteOffset": 202152
    },
    {
      "type": "SCALAR",
      "componentType": 5123,
      "count": 93885,
      "bufferView": 0,
      "byteOffset": 403668
    },
    {
      "type": "SCALAR",
      "componentType": 5123,
      "count": 96873,
      "bufferView": 0,
      "byteOffset": 591440
    },
    {
      "type": "SCALAR",
      "componentType": 5123,
      "count": 94047,
      "bufferView": 0,
      "byteOffset": 785188
    },
    {
      "type": "SCALAR",
      "componentType": 5123,
      "count": 79458,
      "bufferView": 0,
      "byteOffset": 973284
    },
    {
      "type": "SCALAR",
      "componentType": 5123,
      "count": 87579,
      "bufferView": 0,
      "byteOffset": 1132200
    },
    {
      "type": "SCALAR",
      "componentType": 5123,
      "count": 95532,
      "bufferView": 0,
      "byteOffset": 1307360
    },
    {
      "type": "VEC3",
      "componentType": 5122,
      "count": 35060,
      "normalized": true,
      "bufferView": 1,
      "byteOffset": 0
    },
    {
      "type": "VEC3",
      "componentType": 5122,
      "count": 35060,
      "max": [
        32767,
        27231,
        3620
      ],
      "min": [
        -32767,
        -27231,
        -3620
      ],
      "normalized": true,
      "bufferView": 1,
      "byteOffset": 8
    },
    {
      "type": "VEC2",
      "componentType": 5123,
      "count": 35060,
      "normalized": true,
      "bufferView": 1,
      "byteOffset": 16
    },
    {
      "type": "VEC3",
      "componentType": 5122,
      "count": 32551,
      "normalized": true,
      "bufferView": 2,
      "byteOffset": 0
    },
    {
      "type": "VEC3",
      "componentType": 5122,
      "count": 32551,
      "max": [
        32767,
        28319,
        3012
      ],
      "min": [
        -32767,
        -28319,
        -3012
      ],
      "normalized": true,
      "bufferView": 2,
      "byteOffset": 8
    },
    {
      "type": "VEC2",
      "componentType": 5123,
      "count": 32551,
      "normalized": true,
      "bufferView": 2,
      "byteOffset": 16
    },
    {
      "type": "VEC3",
      "componentType": 5122,
      "count": 31909,
      "normalized": true,
      "bufferView": 3,
      "byteOffset": 0
    },
    {
      "type": "VEC3",
      "componentType": 5122,
      "count": 31909,
      "max": [
        32767,
        31739,
        3356
      ],
      "min": [
        -32767,
        -31739,
        -3356
      ],
      "normalized": true,
      "bufferView": 3,
      "byteOffset": 8
    },
    {
      "type": "VEC2",
      "componentType": 5123,
      "count": 31909,
      "normalized": true,
      "bufferView": 3,
      "byteOffset": 16
    },
    {
      "type": "VEC3",
      "componentType": 5122,
      "count": 32614,
      "normalized": true,
      "bufferView": 4,
      "byteOffset": 0
    },
    {
      "type": "VEC3",
      "componentType": 5122,
      "count": 32614,
      "max": [
        32767,
        28335,
        3608
      ],
      "min": [
        -32767,
        -28335,
        -3608
      ],
      "normalized": true,
      "bufferView": 4,
      "byteOffset": 8
    },
    {
      "type": "VEC2",
      "componentType": 5123,
      "count": 32614,
      "normalized": true,
      "bufferView": 4,
      "byteOffset": 16
    },
    {
      "type": "VEC3",
      "componentType": 5122,
      "count": 34281,
      "normalized": true,
      "bufferView": 5,
      "byteOffset": 0
    },
    {
      "type": "VEC3",
      "componentType": 5122,
      "count": 34281,
      "max": [
        32767,
        27155,
        3368
      ],
      "min": [
        -32767,
        -27155,
        -3368
      ],
      "normalized": true,
      "bufferView": 5,
      "byteOffset": 8
    },
    {
      "type": "VEC2",
      "componentType": 5123,
      "count": 34281,
      "normalized": true,
      "bufferView": 5,
      "byteOffset": 16
    },
    {
      "type": "VEC3",
      "componentType": 5122,
      "count": 27931,
      "normalized": true,
      "bufferView": 6,
      "byteOffset": 0
    },
    {
      "type": "VEC3",
      "componentType": 5122,
      "count": 27931,
      "max": [
        32767,
        27415,
        3588
      ],
      "min": [
        -32767,
        -27415,
        -3588
      ],
      "normalized": true,
      "bufferView": 6,
      "byteOffset": 8
    },
    {
      "type": "VEC2",
      "componentType": 5123,
      "count": 27931,
      "normalized": true,
      "bufferView": 6,
      "byteOffset": 16
    },
    {
      "type": "VEC3",
      "componentType": 5122,
      "count": 28341,
      "normalized": true,
      "bufferView": 7,
      "byteOffset": 0
    },
    {
      "type": "VEC3",
      "componentType": 5122,
      "count": 28341,
      "max": [
        32767,
        24631,
        3108
      ],
      "min": [
        -32767,
        -24631,
        -3108
      ],
      "normalized": true,
      "bufferView": 7,
      "byteOffset": 8
    },
    {
      "type": "VEC2",
      "componentType": 5123,
      "count": 28341,
      "normalized": true,
      "bufferView": 7,
      "byteOffset": 16
    },
    {
      "type": "VEC3",
      "componentType": 5122,
      "count": 30620,
      "normalized": true,
      "bufferView": 8,
      "byteOffset": 0
    },
    {
      "type": "VEC3",
      "componentType": 5122,
      "count": 30620,
      "max": [
        30859,
        32767,
        2644
      ],
      "min": [
        -30859,
        -32767,
        -2644
      ],
      "normalized": true,
      "bufferView": 8,
      "byteOffset": 8
    },
    {
      "type": "VEC2",
      "componentType": 5123,
      "count": 30620,
      "normalized": true,
      "bufferView": 8,
      "byteOffset": 16
    }
  ],
  "bufferViews": [
    {
      "buffer": 0,
      "byteOffset": 0,
      "byteLength": 1498424,
      "target": 34963
    },
    {
      "buffer": 0,
      "byteOffset": 1498424,
      "byteLength": 701200,
      "byteStride": 20,
      "target": 34962
    },
    {
      "buffer": 0,
      "byteOffset": 2199624,
      "byteLength": 651020,
      "byteStride": 20,
      "target": 34962
    },
    {
      "buffer": 0,
      "byteOffset": 2850644,
      "byteLength": 638180,
      "byteStride": 20,
      "target": 34962
    },
    {
      "buffer": 0,
      "byteOffset": 3488824,
      "byteLength": 652280,
      "byteStride": 20,
      "target": 34962
    },
    {
      "buffer": 0,
      "byteOffset": 4141104,
      "byteLength": 685620,
      "byteStride": 20,
      "target": 34962
    },
    {
      "buffer": 0,
      "byteOffset": 4826724,
      "byteLength": 558620,
      "byteStride": 20,
      "target": 34962
    },
    {
      "buffer": 0,
      "byteOffset": 5385344,
      "byteLength": 566820,
      "byteStride": 20,
      "target": 34962
    },
    {
      "buffer": 0,
      "byteOffset": 5952164,
      "byteLength": 612400,
      "byteStride": 20,
      "target": 34962
    }
  ],
  "samplers": [
    {
      "magFilter": 9729,
      "minFilter": 9987,
      "wrapS": 10497,
      "wrapT": 10497
    }
  ],
  "textures": [
    {
      "sampler": 0,
      "extensions": {
        "EXT_texture_webp": {
          "source": 0
        }
      }
    },
    {
      "sampler": 0,
      "extensions": {
        "EXT_texture_webp": {
          "source": 1
        }
      }
    },
    {
      "sampler": 0,
      "extensions": {
        "EXT_texture_webp": {
          "source": 2
        }
      }
    },
    {
      "sampler": 0,
      "extensions": {
        "EXT_texture_webp": {
          "source": 3
        }
      }
    },
    {
      "sampler": 0,
      "extensions": {
        "EXT_texture_webp": {
          "source": 4
        }
      }
    },
    {
      "sampler": 0,
      "extensions": {
        "EXT_texture_webp": {
          "source": 5
        }
      }
    },
    {
      "sampler": 0,
      "extensions": {
        "EXT_texture_webp": {
          "source": 6
        }
      }
    },
    {
      "sampler": 0,
      "extensions": {
        "EXT_texture_webp": {
          "source": 7
        }
      }
    }
  ],
  "images": [
    {
      "mimeType": "image/webp",
      "uri": "textures/material4_baseColor.webp"
    },
    {
      "mimeType": "image/webp",
      "uri": "textures/material3_baseColor.webp"
    },
    {
      "mimeType": "image/webp",
      "uri": "textures/material1_baseColor.webp"
    },
    {
      "mimeType": "image/webp",
      "uri": "textures/material6_baseColor.webp"
    },
    {
      "mimeType": "image/webp",
      "uri": "textures/material5_baseColor.webp"
    },
    {
      "mimeType": "image/webp",
      "uri": "textures/material7_baseColor.webp"
    },
    {
      "mimeType": "image/webp",
      "uri": "textures/material0_baseColor.webp"
    },
    {
      "mimeType": "image/webp",
      "uri": "textures/material2_baseColor.webp"
    }
  ],
  "buffers": [
    {
      "uri": "scene.bin",
      "byteLength": 6564564
    }
  ],
  "materials": [
    {
      "name": "material4",
      "doubleSided": false,
      "pbrMetallicRoughness": {
        "roughnessFactor": 0.9577051494623774,
        "metallicFactor": 0,
        "baseColorTexture": {
          "index": 0
        }
      }
    },
    {
      "name": "material3",
      "doubleSided": false,
      "pbrMetallicRoughness": {
        "roughnessFactor": 0.9577051494623774,
        "metallicFactor": 0,
        "baseColorTexture": {
          "index": 1
        }
      }
    },
    {
      "name": "material1",
      "doubleSided": false,
      "pbrMetallicRoughness": {
        "roughnessFactor": 0.9577051494623774,
        "metallicFactor": 0,
        "baseColorTexture": {
          "index": 2
        }
      }
    },
    {
      "name": "material6",
      "doubleSided": false,
      "pbrMetallicRoughness": {
        "roughnessFactor": 0.9577051494623774,
        "metallicFactor": 0,
        "baseColorTexture": {
          "index": 3
        }
      }
    },
    {
      "name": "material5",
      "doubleSided": false,
      "pbrMetallicRoughness": {
        "roughnessFactor": 0.9577051494623774,
        "metallicFactor": 0,
        "baseColorTexture": {
          "index": 4
        }
      }
    },
    {
      "name": "material7",
      "doubleSided": false,
      "pbrMetallicRoughness": {
        "roughnessFactor": 0.9577051494623774,
        "metallicFactor": 0,
        "baseColorTexture": {
          "index": 5
        }
      }
    },
    {
      "name": "material0",
      "doubleSided": false,
      "pbrMetallicRoughness": {
        "roughnessFactor": 0.9577051494623774,
        "metallicFactor": 0,
        "baseColorTexture": {
          "index": 6
        }
      }
    },
    {
      "name": "material2",
      "doubleSided": false,
      "pbrMetallicRoughness": {
        "roughnessFactor": 0.9577051494623774,
        "metallicFactor": 0,
        "baseColorTexture": {
          "index": 7
        }
      }
    }
  ],
  "meshes": [
    {
      "name": "Model_material4_0",
      "primitives": [
        {
          "attributes": {
            "NORMAL": 8,
            "POSITION": 9,
            "TEXCOORD_0": 10
          },
          "mode": 4,
          "material": 0,
          "indices": 0
        }
      ]
    },
    {
      "name": "Model_material3_0",
      "primitives": [
        {
          "attributes": {
            "NORMAL": 11,
            "POSITION": 12,
            "TEXCOORD_0": 13
          },
          "mode": 4,
          "material": 1,
          "indices": 1
        }
      ]
    },
    {
      "name": "Model_material1_0",
      "primitives": [
        {
          "attributes": {
            "NORMAL": 14,
            "POSITION": 15,
            "TEXCOORD_0": 16
          },
          "mode": 4,
          "material": 2,
          "indices": 2
        }
      ]
    },
    {
      "name": "Model_material6_0",
      "primitives": [
        {
          "attributes": {
            "NORMAL": 17,
            "POSITION": 18,
            "TEXCOORD_0": 19
          },
          "mode": 4,
          "material": 3,
          "indices": 3
        }
      ]
    },
    {
      "name": "Model_material5_0",
      "primitives": [
        {
          "attributes": {
            "NORMAL": 20,
            "POSITION": 21,
            "TEXCOORD_0": 22
          },
          "mode": 4,
          "material": 4,
          "indices": 4
        }
      ]
    },
    {
      "name": "Model_material7_0",
      "primitives": [
        {
          "attributes": {
            "NORMAL": 23,
            "POSITION": 24,
            "TEXCOORD_0": 25
          },
          "mode": 4,
          "material": 5,
          "indices": 5
        }
      ]
    },
    {
      "name": "Model_material0_0",
      "primitives": [
        {
          "attributes": {
            "NORMAL": 26,
            "POSITION": 27,
            "TEXCOORD_0": 28
          },
          "mode": 4,
          "material": 6,
          "indices": 6
        }
      ]
    },
    {
      "name": "Model_material2_0",
      "primitives": [
        {
          "attributes": {
            "NORMAL": 29,
            "POSITION": 30,
            "TEXCOORD_0": 31
          },
          "mode": 4,
          "material": 7,
          "indices": 7
        }
      ]
    }
  ],
  "nodes": [
    {
      "name": "Model_material4_0",
      "translation": [
        -223.8036861419681,
        326.1365051269527,
        -212.86787414550676
      ],
      "rotation": [
        -0.49999999999999944,
        -0.49999999999999944,
        -0.49999999999999967,
        0.5000000000000011
      ],
      "scale": [
        290.32893371581997,
        290.32893371581997,
        290.32893371581997
      ],
      "mesh": 0
    },
    {
      "name": "Model_material3_0",
      "translation": [
        -213.51337051391636,
        326.4394073486324,
        -202.93844223022356
      ],
      "rotation": [
        -0.49999999999999944,
        -0.49999999999999944,
        -0.49999999999999967,
        0.5000000000000011
      ],
      "scale": [
        302.2655982971188,
        302.2655982971188,
        302.2655982971188
      ],
      "mesh": 1
    },
    {
      "name": "Model_material1_0",
      "translation": [
        -208.14265441894565,
        326.01403808593716,
        -212.35720443725484
      ],
      "rotation": [
        -0.49999999999999944,
        -0.49999999999999944,
        -0.49999999999999967,
        0.5000000000000011
      ],
      "scale": [
        291.8449745178219,
        291.8449745178219,
        291.8449745178219
      ],
      "mesh": 2
    },
    {
      "name": "Model_material6_0",
      "translation": [
        -221.85478687286408,
        323.2664031982418,
        -210.73831176757707
      ],
      "rotation": [
        -0.49999999999999933,
        -0.49999999999999933,
        -0.49999999999999956,
        0.5000000000000011
      ],
      "scale": [
        292.8762817382809,
        292.8762817382809,
        292.8762817382809
      ],
      "mesh": 3
    },
    {
      "name": "Model_material5_0",
      "translation": [
        -196.35119056701697,
        324.5604858398434,
        -208.57876968383687
      ],
      "rotation": [
        -0.49999999999999944,
        -0.49999999999999944,
        -0.49999999999999967,
        0.5000000000000011
      ],
      "scale": [
        296.78313827514614,
        296.78313827514614,
        296.78313827514614
      ],
      "mesh": 4
    },
    {
      "name": "Model_material7_0",
      "translation": [
        -188.0387802124027,
        323.2335510253903,
        -207.78521347045796
      ],
      "rotation": [
        -0.49999999999999944,
        -0.49999999999999944,
        -0.49999999999999967,
        0.5000000000000011
      ],
      "scale": [
        294.2619667053219,
        294.2619667053219,
        294.2619667053219
      ],
      "mesh": 5
    },
    {
      "name": "Model_material0_0",
      "translation": [
        -223.55986046791105,
        325.6921386718746,
        -195.33132553100484
      ],
      "rotation": [
        -0.49999999999999933,
        -0.49999999999999933,
        -0.49999999999999956,
        0.5000000000000011
      ],
      "scale": [
        304.6105079650875,
        304.6105079650875,
        304.6105079650875
      ],
      "mesh": 6
    },
    {
      "name": "Model_material2_0",
      "translation": [
        -200.41289138793985,
        330.6922760009762,
        -237.15325260162246
      ],
      "rotation": [
        -0.49999999999999944,
        -0.49999999999999944,
        -0.49999999999999967,
        0.5000000000000011
      ],
      "scale": [
        283.26563644409146,
        283.26563644409146,
        283.26563644409146
      ],
      "mesh": 7
    }
  ],
  "scenes": [
    {
      "name": "Sketchfab_Scene",
      "nodes": [
        0,
        1,
        2,
        3,
        4,
        5,
        6,
        7
      ]
    }
  ],
  "scene": 0,
  "extensionsUsed": [
    "EXT_texture_webp",
    "KHR_mesh_quantization"
  ],
  "extensionsRequired": [
    "EXT_texture_webp",
    "KHR_mesh_quantization"
  ]
}